<svg version="1.0" xmlns="http://www.w3.org/2000/svg" width="200.000000pt" height="144.000000pt"
    viewBox="0 0 1260.000000 913.000000" preserveAspectRatio="xMidYMid meet">

    <g transform="translate(0.000000,913.000000) scale(0.100000,-0.100000)" fill="#ffffff" stroke="none">
        <path d="M218 8911 c-54 -53 -60 -63 -53 -88 7 -28 21 -43 42 -43 6 0 43 28
82 61 71 62 86 90 59 117 -28 28 -67 13 -130 -47z"></path>
        <path d="M442 8709 c-149 -144 -274 -270 -277 -280 -8 -23 11 -59 31 -59 25 0
67 26 104 65 19 20 137 134 263 252 190 180 227 220 227 243 0 29 -15 40 -54
40 -16 0 -102 -77 -294 -261z"></path>
        <path d="M955 8788 c-105 -101 -322 -309 -483 -462 -161 -153 -297 -287 -303
-298 -20 -37 22 -90 55 -71 16 9 253 233 684 647 287 276 312 304 310 331 -3
26 -7 30 -38 33 -33 2 -46 -8 -225 -180z"></path>
        <path d="M1384 8787 c-105 -100 -294 -281 -420 -402 -126 -121 -356 -341 -512
-489 -155 -149 -285 -278 -288 -288 -7 -22 20 -68 40 -68 22 0 74 47 555 507
917 876 891 850 891 889 0 33 -1 34 -37 34 -35 -1 -52 -14 -229 -183z"></path>
        <path d="M1578 8559 c-238 -227 -536 -512 -663 -633 -126 -121 -275 -263 -330
-316 -317 -302 -418 -405 -421 -432 -4 -32 24 -53 58 -42 12 3 114 95 227 203
113 109 408 391 656 627 1028 981 970 923 970 963 0 33 -3 36 -32 39 -30 3
-61 -25 -465 -409z"></path>
        <path d="M2303 8838 c-76 -73 -226 -216 -333 -318 -414 -395 -1375 -1313
-1582 -1512 -119 -115 -220 -217 -223 -228 -9 -29 12 -60 41 -60 20 0 70 42
213 178 102 98 391 373 641 612 250 239 659 630 909 870 250 239 474 452 498
473 67 60 68 117 2 117 -23 0 -55 -26 -166 -132z"></path>
        <path d="M2265 8368 c-1840 -1756 -2084 -1990 -2098 -2015 -12 -19 1 -51 24
-64 28 -15 41 -5 231 178 165 160 1026 981 1433 1367 121 115 279 266 350 335
72 69 223 215 338 325 173 165 207 202 207 226 0 29 -15 40 -53 40 -15 0 -153
-126 -432 -392z"></path>
        <path d="M2688 8337 c-123 -117 -520 -496 -883 -842 -363 -347 -709 -677 -770
-735 -60 -57 -189 -181 -285 -275 -97 -93 -262 -253 -368 -354 -107 -101 -200
-194 -209 -207 -23 -36 -9 -64 34 -64 32 0 52 17 232 188 108 104 455 436 771
737 1664 1589 1764 1686 1773 1708 8 22 -21 57 -48 57 -17 0 -85 -58 -247
-213z"></path>
        <path d="M2535 7758 c-2033 -1940 -2364 -2258 -2371 -2280 -8 -28 14 -58 43
-58 27 0 119 82 453 405 85 83 450 431 810 775 360 344 765 731 900 860 135
129 379 363 543 519 246 234 297 288 297 310 0 32 -16 51 -45 51 -13 0 -228
-198 -630 -582z"></path>
        <path d="M3287 8043 c-119 -109 -2517 -2403 -2931 -2805 -185 -179 -199 -195
-192 -221 5 -23 11 -27 43 -27 33 0 48 11 172 133 75 73 179 173 231 222 131
124 2001 1910 2575 2459 137 132 254 246 259 254 15 25 -10 62 -43 62 -22 0
-49 -18 -114 -77z"></path>
        <path d="M3615 7910 c-20 -8 -192 -171 -1405 -1330 -360 -344 -745 -711 -855
-815 -109 -105 -346 -332 -525 -505 -179 -173 -400 -386 -492 -473 -92 -87
-170 -167 -173 -177 -9 -29 12 -60 41 -60 26 0 143 106 499 450 82 80 244 236
360 346 423 403 2016 1925 2229 2129 120 116 257 246 303 291 67 63 84 85 81
103 -4 31 -37 52 -63 41z"></path>
        <path d="M3743 7608 c-184 -174 -1123 -1070 -1843 -1758 -130 -124 -478 -457
-775 -740 -572 -545 -945 -906 -958 -928 -5 -7 -6 -24 -3 -38 5 -19 13 -24 40
-24 31 0 52 17 193 153 87 83 244 233 348 332 105 99 255 243 335 320 122 118
535 514 1134 1085 72 68 326 311 565 540 239 228 482 460 540 514 102 96 218
208 474 454 117 114 134 141 105 170 -27 27 -58 12 -155 -80z"></path>
        <path d="M4048 7462 c-20 -15 -226 -210 -459 -433 -233 -222 -516 -492 -629
-599 -113 -106 -279 -266 -370 -355 -161 -156 -1462 -1399 -1864 -1780 -312
-295 -555 -536 -561 -556 -3 -10 -1 -27 5 -39 26 -48 49 -31 351 258 160 152
356 340 437 416 81 77 296 282 477 456 485 465 1002 959 1145 1095 69 65 320
305 559 533 238 229 481 460 540 516 330 312 461 444 461 468 0 53 -40 62 -92
20z"></path>
        <path d="M4235 7193 c-41 -38 -173 -162 -292 -278 -120 -115 -525 -502 -899
-860 -374 -357 -812 -776 -973 -930 -438 -419 -825 -789 -1142 -1090 -373
-354 -529 -508 -529 -522 0 -6 8 -21 18 -33 14 -17 25 -21 43 -17 13 4 101 79
194 169 273 260 2019 1927 2700 2578 176 168 450 431 608 585 159 154 314 301
344 326 75 64 88 85 74 115 -8 18 -19 24 -41 24 -23 0 -47 -16 -105 -67z"></path>
        <path d="M4543 7028 c-17 -13 -233 -216 -480 -453 -246 -236 -950 -909 -1563
-1495 -613 -586 -1194 -1141 -1292 -1235 -98 -93 -260 -249 -360 -345 -101
-96 -187 -183 -192 -192 -14 -28 8 -68 38 -68 27 0 52 23 572 520 181 173 572
546 869 830 944 902 1471 1406 1785 1704 500 477 694 669 705 694 8 20 6 27
-14 43 -29 24 -30 24 -68 -3z"></path>
        <path d="M4804 6817 c-20 -11 -305 -281 -1164 -1102 -673 -644 -1917 -1831
-2020 -1930 -58 -54 -184 -176 -281 -270 -96 -93 -234 -226 -307 -295 -72 -69
-134 -131 -136 -138 -3 -7 0 -23 6 -37 16 -35 49 -32 95 8 35 30 472 446 1258
1197 850 813 1912 1827 2020 1930 325 308 605 586 605 602 0 9 -10 24 -22 32
-26 19 -27 19 -54 3z"></path>
        <path d="M6110 6696 c-30 -6 -77 -22 -105 -36 -62 -30 -174 -140 -203 -200
-50 -105 -52 -132 -52 -635 0 -557 5 -621 55 -721 79 -162 263 -266 438 -250
193 18 341 125 409 294 21 54 23 72 26 343 5 404 13 391 -247 395 -91 1 -182
-2 -202 -7 -56 -14 -82 -49 -87 -118 -4 -56 -3 -61 31 -97 35 -39 36 -39 124
-43 48 -1 94 -8 101 -13 9 -8 12 -55 12 -172 0 -162 0 -162 -29 -208 -38 -60
-110 -103 -168 -102 -52 1 -111 38 -153 96 l-30 41 0 515 0 515 25 43 c34 58
100 96 164 96 62 0 95 -18 157 -85 36 -40 62 -58 92 -66 61 -17 115 0 142 44
35 56 36 97 6 159 -53 108 -184 196 -321 216 -87 12 -115 12 -185 -4z"></path>
        <path d="M8870 6696 c-20 -6 -41 -23 -51 -41 -10 -16 -47 -142 -84 -280 -36
-137 -89 -329 -117 -425 -120 -419 -258 -937 -258 -969 0 -83 88 -147 168
-123 63 19 79 46 127 212 24 84 50 157 57 161 17 11 419 11 436 1 7 -5 24 -51
38 -103 44 -166 64 -217 95 -243 87 -73 219 -15 219 95 0 35 -117 482 -220
839 -21 74 -80 285 -130 469 -91 335 -106 378 -141 399 -28 18 -99 22 -139 8z
m133 -903 c37 -137 67 -256 67 -265 0 -16 -14 -18 -146 -18 -113 0 -145 3
-142 13 3 6 36 126 73 265 38 138 71 252 74 252 3 0 36 -111 74 -247z"></path>
        <path d="M9975 6701 c-30 -13 -52 -42 -64 -86 -7 -27 -11 -293 -11 -845 0
-747 1 -808 18 -840 21 -42 75 -80 114 -80 44 0 98 29 119 64 18 29 19 60 19
540 0 318 4 506 9 500 6 -5 48 -90 94 -189 47 -99 161 -336 255 -527 147 -301
175 -350 204 -368 65 -39 158 -15 190 50 17 32 18 94 18 858 0 907 2 875 -62
908 -47 25 -120 24 -155 -2 -58 -43 -58 -35 -63 -576 l-5 -497 -255 527 c-222
457 -260 529 -289 549 -35 24 -96 30 -136 14z"></path>
        <path d="M11663 6691 c-100 -7 -124 -19 -149 -78 -21 -48 -21 -1618 0 -1666
29 -70 34 -71 280 -77 121 -3 241 -2 266 2 120 21 255 118 312 224 58 107 59
124 56 712 -3 535 -3 537 -26 594 -51 127 -167 238 -284 273 -58 17 -315 26
-455 16z m348 -271 c57 -16 102 -51 127 -100 l23 -45 -3 -506 -3 -505 -28 -42
c-45 -69 -86 -83 -230 -80 l-122 3 -3 629 c-1 456 1 633 9 642 14 17 175 19
230 4z"></path>
        <path d="M7183 6680 c-13 -5 -32 -24 -43 -42 -20 -32 -20 -50 -20 -863 0 -815
0 -831 20 -863 54 -88 204 -76 237 19 8 23 12 133 12 352 l1 317 26 10 c31 12
84 13 102 1 7 -4 71 -162 142 -350 70 -188 137 -352 147 -363 21 -24 73 -48
105 -48 12 0 41 9 64 20 50 25 79 75 70 123 -3 18 -51 156 -107 307 -55 151
-108 295 -116 319 l-16 45 44 35 c107 87 153 159 184 288 24 99 17 298 -14
394 -45 140 -150 249 -278 289 -58 18 -92 20 -302 19 -130 0 -246 -4 -258 -9z
m479 -273 c53 -22 95 -78 108 -144 13 -60 8 -202 -9 -245 -14 -38 -60 -87
-100 -107 -38 -19 -178 -33 -237 -24 l-34 6 0 263 0 263 43 4 c69 8 194 -1
229 -16z"></path>
        <path d="M4773 6338 c-26 -23 -145 -134 -263 -248 -118 -114 -375 -359 -570
-546 -2847 -2718 -2800 -2673 -2800 -2700 0 -20 23 -54 36 -54 19 0 68 41 203
169 169 160 344 327 1846 1761 555 531 1055 1008 1110 1060 55 52 191 183 301
292 111 109 206 198 211 198 10 0 33 43 33 60 0 13 -37 50 -49 50 -6 0 -31
-19 -58 -42z"></path>
        <path d="M4804 5907 c-12 -7 -118 -105 -235 -218 -118 -113 -522 -500 -899
-859 -1348 -1287 -1547 -1477 -1711 -1635 -91 -88 -256 -245 -367 -350 -110
-104 -204 -200 -207 -212 -10 -31 11 -63 40 -63 17 0 55 29 127 98 292 277
2027 1932 2318 2212 135 129 331 316 435 415 314 297 575 558 575 574 -1 38
-41 58 -76 38z"></path>
        <path d="M4810 5453 c-17 -6 -27 -16 -495 -464 -667 -638 -1472 -1407 -1585
-1514 -145 -137 -686 -654 -920 -878 -96 -93 -179 -175 -183 -183 -22 -39 29
-86 66 -61 30 20 171 153 693 652 247 236 589 562 759 725 171 163 460 440
644 616 183 175 390 373 460 438 416 394 631 609 631 632 0 32 -34 50 -70 37z"></path>
        <path d="M4757 4983 c-34 -31 -154 -145 -267 -253 -113 -108 -360 -344 -550
-525 -190 -181 -453 -433 -585 -560 -132 -126 -473 -453 -758 -725 -320 -305
-520 -503 -524 -519 -4 -18 0 -29 17 -43 12 -10 26 -18 31 -18 13 0 96 76 334
304 116 111 316 303 445 426 129 123 330 314 445 425 116 110 370 353 565 540
812 775 970 930 970 951 0 22 -29 54 -48 54 -7 0 -40 -26 -75 -57z"></path>
        <path d="M4777 4573 c-25 -21 -278 -261 -564 -534 -285 -273 -579 -554 -653
-625 -791 -754 -1040 -997 -1040 -1017 0 -33 15 -50 44 -50 20 0 70 42 218
184 2063 1967 2092 1995 2096 2029 4 24 -19 50 -44 50 -6 0 -32 -17 -57 -37z"></path>
        <path d="M8925 4266 c-16 -7 -39 -23 -50 -36 -20 -22 -20 -38 -23 -753 -2
-514 -6 -734 -13 -744 -9 -10 -47 -13 -151 -13 -156 0 -185 -8 -218 -63 -26
-42 -26 -112 0 -155 38 -61 44 -62 517 -62 399 0 431 2 470 19 25 12 48 32 57
50 22 41 20 109 -4 148 -33 55 -62 63 -219 63 -92 0 -142 4 -147 11 -3 6 -7
331 -8 723 -1 671 -2 713 -20 748 -34 69 -117 97 -191 64z"></path>
        <path d="M10220 4264 c-176 -47 -303 -172 -357 -355 -14 -45 -17 -128 -20
-507 -5 -476 1 -579 36 -673 44 -114 161 -227 282 -268 88 -31 241 -39 332
-17 186 44 329 186 366 364 7 34 11 222 11 535 0 402 -3 493 -15 542 -51 196
-181 333 -360 380 -73 19 -202 18 -275 -1z m202 -276 c22 -6 59 -29 82 -49 79
-70 76 -46 76 -592 0 -320 -4 -495 -11 -514 -50 -132 -274 -164 -383 -56 -60
60 -61 70 -61 573 l0 455 28 58 c54 108 160 158 269 125z"></path>
        <path d="M11471 4262 c-19 -9 -44 -30 -55 -45 -21 -28 -21 -37 -24 -835 -2
-586 0 -818 9 -849 17 -62 57 -95 121 -100 65 -5 113 18 140 68 16 31 18 64
18 380 0 282 3 349 14 358 9 8 78 11 227 9 l214 -3 5 -372 5 -371 24 -26 c47
-50 157 -61 203 -20 49 44 48 29 48 907 l0 824 -22 33 c-52 75 -186 78 -235 4
-16 -25 -18 -60 -23 -359 l-5 -330 -225 0 -225 0 -5 332 -5 331 -25 27 c-53
56 -116 70 -179 37z"></path>
        <path d="M5834 4251 c-57 -35 -76 -70 -72 -129 5 -57 29 -99 69 -119 17 -9 95
-13 270 -13 177 0 248 -3 257 -12 9 -9 12 -184 12 -728 0 -696 1 -716 20 -748
28 -46 76 -72 132 -72 39 0 54 6 82 31 20 17 40 47 46 67 6 24 10 323 10 832
0 737 -1 797 -18 829 -9 19 -30 44 -45 55 -27 20 -42 21 -380 24 -331 2 -354
1 -383 -17z"></path>
        <path d="M7218 4248 c-52 -30 -72 -72 -66 -137 4 -42 12 -59 37 -84 l31 -32
262 -3 c168 -2 267 -7 275 -14 10 -8 13 -60 13 -213 0 -112 -3 -210 -6 -219
-5 -14 -35 -16 -228 -16 -195 0 -225 -2 -255 -18 -93 -50 -93 -199 -2 -247 24
-12 71 -15 254 -15 196 0 226 -2 231 -16 8 -20 8 -478 0 -498 -5 -14 -38 -16
-261 -16 -281 0 -297 -3 -333 -63 -26 -42 -26 -112 0 -155 37 -60 53 -62 427
-62 387 0 390 0 431 80 l22 44 0 791 0 791 -22 44 c-40 80 -43 80 -433 80
-329 0 -341 -1 -377 -22z"></path>
        <path d="M4612 3993 c-246 -235 -553 -529 -980 -938 -172 -165 -390 -373 -485
-463 -95 -90 -176 -174 -181 -187 -12 -31 7 -55 45 -55 23 0 53 23 152 118 67
64 210 200 317 302 107 102 310 295 450 430 140 135 381 365 535 511 303 288
425 411 425 427 0 12 -48 52 -62 52 -5 0 -102 -89 -216 -197z"></path>
        <path d="M4678 3628 c-78 -73 -266 -252 -418 -398 -152 -146 -405 -388 -563
-539 -304 -290 -313 -303 -262 -337 33 -22 37 -19 226 163 85 81 251 240 369
353 118 112 278 265 355 340 77 74 220 211 317 303 97 92 180 177 183 188 8
25 -20 59 -47 59 -11 0 -82 -59 -160 -132z"></path>
        <path d="M4755 3272 c-33 -31 -188 -179 -345 -327 -486 -461 -550 -525 -550
-557 0 -32 37 -56 63 -42 9 5 140 128 292 274 151 146 362 347 468 447 106
100 196 194 202 208 8 22 6 30 -10 41 -33 24 -58 15 -120 -44z"></path>
        <path d="M4570 2668 c-138 -133 -256 -250 -261 -260 -20 -37 24 -78 63 -57 36
19 503 470 512 495 11 27 -15 64 -45 64 -11 0 -129 -106 -269 -242z"></path>
        <path d="M4784 2446 c-40 -40 -43 -69 -10 -91 29 -20 51 -11 90 36 64 75 -9
126 -80 55z"></path>
        <path d="M12038 1710 c-63 -11 -161 -64 -203 -111 -19 -21 -47 -62 -62 -91
-25 -48 -28 -62 -28 -158 0 -158 9 -172 279 -452 123 -127 229 -245 238 -266
62 -133 -46 -295 -197 -295 -65 0 -123 30 -166 85 -43 55 -47 58 -91 58 -100
0 -104 -117 -7 -205 21 -19 70 -50 109 -70 62 -31 78 -35 150 -35 71 0 90 4
154 34 98 45 148 93 192 181 35 72 36 74 32 182 -3 104 -5 112 -38 168 -22 36
-111 135 -238 264 -203 205 -244 256 -257 320 -16 75 38 171 118 210 84 41
165 19 243 -64 43 -46 57 -55 85 -55 53 0 79 23 79 71 0 51 -18 86 -71 133
-84 77 -212 115 -321 96z"></path>
        <path d="M2380 1701 c-98 -30 -191 -105 -229 -184 -38 -77 -42 -150 -39 -623
l3 -449 29 -60 c38 -78 110 -148 188 -185 53 -25 76 -30 139 -30 133 0 236 51
310 153 56 77 29 147 -55 147 -41 0 -48 -4 -82 -46 -124 -151 -329 -95 -365
100 -7 37 -9 201 -7 455 l3 396 30 60 c26 52 37 64 84 88 97 48 154 36 247
-54 51 -48 68 -59 96 -59 43 0 78 34 78 76 0 68 -104 172 -209 209 -46 16
-177 19 -221 6z"></path>
        <path d="M3420 1701 c-93 -30 -174 -97 -221 -183 l-34 -63 0 -510 0 -510 27
-55 c43 -88 82 -127 169 -170 70 -36 86 -40 152 -40 158 0 273 71 341 210 l31
65 3 489 3 489 -34 71 c-41 85 -98 145 -175 183 -48 24 -71 28 -147 30 -49 1
-101 -1 -115 -6z m209 -184 c22 -15 53 -46 68 -69 l28 -42 3 -445 c3 -479 2
-490 -50 -556 -26 -33 -87 -64 -140 -71 -59 -8 -142 35 -183 94 l-30 44 -3
436 c-2 241 0 456 3 478 7 49 59 115 114 144 52 29 135 23 190 -13z"></path>
        <path d="M4463 1675 c-80 -40 -144 -103 -176 -173 -18 -39 -22 -65 -22 -157 0
-160 6 -169 275 -448 229 -235 259 -277 260 -350 1 -132 -142 -241 -269 -206
-34 10 -62 29 -109 76 -53 53 -68 63 -97 63 -65 0 -96 -71 -61 -139 23 -43
102 -110 169 -142 144 -68 344 -19 446 110 73 92 101 237 67 353 -23 80 -77
147 -293 366 -198 200 -233 248 -233 317 0 98 99 204 191 205 67 0 144 -44
201 -118 24 -29 89 -31 118 -2 48 48 12 138 -82 206 -74 55 -135 74 -232 74
-75 0 -90 -3 -153 -35z"></path>
        <path d="M5351 1684 c-21 -26 -21 -33 -21 -744 0 -711 0 -718 21 -744 28 -36
86 -36 120 0 l24 26 5 510 5 510 114 -242 c124 -261 129 -268 196 -256 36 7
39 11 100 139 35 73 89 186 121 252 l59 120 5 -528 c5 -509 6 -529 24 -543 21
-15 63 -18 91 -8 45 18 45 21 45 772 0 702 0 710 -21 736 -16 21 -29 26 -64
26 -27 0 -47 -6 -56 -16 -8 -10 -82 -161 -165 -338 -83 -177 -155 -321 -159
-321 -4 0 -65 122 -135 270 -200 427 -186 405 -255 405 -24 0 -39 -7 -54 -26z"></path>
        <path d="M6953 1696 c-100 -33 -169 -92 -221 -189 l-27 -52 -3 -496 c-3 -484
-2 -498 18 -553 31 -81 107 -161 195 -203 60 -29 80 -33 148 -33 68 0 88 4
151 34 126 58 197 151 216 283 12 87 13 830 0 906 -20 126 -86 221 -192 278
-56 29 -73 33 -153 36 -57 2 -106 -2 -132 -11z m216 -179 c23 -15 53 -46 68
-69 l28 -42 3 -454 c3 -449 3 -455 -19 -499 -25 -51 -83 -98 -142 -114 -81
-22 -177 24 -220 104 -22 41 -22 48 -25 487 -2 389 -1 450 13 487 17 45 69 97
119 119 47 22 127 13 175 -19z"></path>
        <path d="M9218 1687 c-74 -32 -129 -76 -166 -135 -58 -91 -57 -85 -57 -617 l0
-490 33 -67 c134 -274 520 -277 664 -6 21 40 23 58 28 288 3 135 3 373 0 530
l-5 285 -28 48 c-38 64 -99 122 -162 155 -42 22 -66 26 -150 29 -88 3 -107 1
-157 -20z m255 -173 c23 -16 52 -49 65 -71 l23 -42 0 -455 1 -455 -24 -43
c-48 -87 -142 -131 -228 -108 -52 14 -125 79 -142 128 -10 28 -13 141 -13 482
1 433 1 446 22 485 43 81 106 117 196 112 44 -3 67 -10 100 -33z"></path>
        <path d="M10241 1691 c-11 -11 -22 -39 -26 -63 -3 -24 -5 -348 -3 -720 l3
-677 23 -23 c22 -23 25 -23 296 -23 255 0 275 1 295 19 28 26 29 88 1 116 -19
19 -33 20 -223 20 -145 0 -206 3 -215 12 -9 9 -12 169 -12 660 l0 649 -25 24
c-30 31 -86 34 -114 6z"></path>
        <path d="M11163 1683 c-17 -25 -18 -77 -21 -733 l-3 -706 24 -35 c19 -28 30
-35 64 -37 34 -3 44 1 62 24 21 27 21 29 21 748 0 713 0 723 -20 744 -15 16
-32 22 -65 22 -37 0 -47 -4 -62 -27z"></path>
        <path d="M7941 1681 c-21 -21 -21 -26 -21 -740 0 -712 0 -719 21 -745 28 -36
86 -36 120 0 l24 26 5 301 5 302 123 7 c168 9 243 33 315 98 83 76 127 191
127 334 0 82 -17 182 -40 233 -27 61 -100 135 -167 169 l-58 29 -217 3 c-208
3 -217 3 -237 -17z m440 -169 c45 -23 59 -37 84 -87 27 -53 30 -67 30 -159 0
-115 -17 -159 -79 -214 -49 -43 -95 -54 -216 -50 l-105 3 -3 268 -2 267 119 0
c111 0 122 -2 172 -28z"></path>
    </g>
</svg>